<?xml version="1.0" encoding="utf-8"?>
<!-- Generator: Adobe Illustrator 25.4.1, SVG Export Plug-In . SVG Version: 6.00 Build 0)  -->
<svg version="1.1" xmlns="http://www.w3.org/2000/svg" xmlns:xlink="http://www.w3.org/1999/xlink" x="0px" y="0px"
	 viewBox="0 0 1000 1000" style="enable-background:new 0 0 1000 1000;" xml:space="preserve">
<g id="Layer_1">
</g>
<g id="Layer_2">
	<g style="display:none;">
		<path style="display:inline;fill:#F7E539;stroke:#FFFFFF;stroke-width:14;stroke-miterlimit:10;" d="M487.547,580.591
			l29.492,63.532c2.367,5.099,7.092,8.707,12.634,9.648l69.055,11.722c13.958,2.369,19.14,19.715,8.769,29.352l-51.308,47.681
			c-4.118,3.827-6.089,9.435-5.272,14.997l10.191,69.298c2.06,14.007-12.835,24.295-25.206,17.41L474.7,810.168
			c-4.912-2.734-10.855-2.876-15.892-0.379l-62.757,31.106c-12.685,6.287-27.072-4.7-24.347-18.592l13.483-68.733
			c1.082-5.517-0.62-11.213-4.551-15.232l-48.977-50.073c-9.899-10.121-3.896-27.2,10.159-28.901l69.536-8.416
			c5.581-0.676,10.472-4.054,13.08-9.035l32.488-62.053C463.488,567.318,481.586,567.75,487.547,580.591z"/>
		<path style="display:inline;fill:#F7E539;stroke:#FFFFFF;stroke-width:14;stroke-miterlimit:10;" d="M160.666,534.58l65.854-9.682
			c5.286-0.777,9.85-4.105,12.207-8.9l29.358-59.738c5.934-12.074,23.137-12.103,29.112-0.049l29.558,59.639
			c2.372,4.787,6.948,8.1,12.237,8.859l65.886,9.461c13.317,1.912,18.661,18.265,9.042,27.672l-47.586,46.541
			c-3.819,3.736-5.556,9.111-4.644,14.375l11.362,65.585c2.297,13.256-11.604,23.391-23.523,17.151L290.56,674.62
			c-4.733-2.478-10.382-2.469-15.107,0.025l-58.864,31.073c-11.898,6.281-25.833-3.808-23.581-17.072l11.142-65.623
			c0.894-5.267-0.86-10.637-4.692-14.36l-47.742-46.381C142.066,552.908,147.355,536.537,160.666,534.58z"/>
		<path style="display:inline;fill:#F7E539;stroke:#FFFFFF;stroke-width:14;stroke-miterlimit:10;" d="M381.419,206.971
			l51.083,28.833c4.1,2.314,9.076,2.463,13.307,0.397l52.712-25.735c10.654-5.202,22.648,4.071,20.296,15.692l-11.636,57.493
			c-0.934,4.615,0.463,9.393,3.734,12.779l40.764,42.179c8.239,8.525,3.126,22.798-8.652,24.152l-58.275,6.7
			c-4.677,0.538-8.79,3.343-10.999,7.5l-27.518,51.803c-5.562,10.471-20.716,10.018-25.643-0.765l-24.38-53.352
			c-1.957-4.282-5.895-7.327-10.532-8.143L327.91,356.34c-11.677-2.054-15.93-16.606-7.196-24.625l43.207-39.673
			c3.468-3.184,5.147-7.871,4.49-12.533l-8.187-58.084C358.568,209.685,371.094,201.144,381.419,206.971z"/>
		<path style="display:inline;fill:#F7E539;stroke:#FFFFFF;stroke-width:14;stroke-miterlimit:10;" d="M610.326,246.881
			l40.111,29.342c3.219,2.355,7.392,2.975,11.157,1.658l46.911-16.408c9.482-3.316,18.651,5.679,15.515,15.222L708.51,323.91
			c-1.245,3.79-0.545,7.949,1.871,11.123l30.101,39.545c6.084,7.993,0.362,19.493-9.683,19.46l-49.698-0.161
			c-3.989-0.013-7.729,1.938-10.001,5.216l-28.307,40.848c-5.721,8.256-18.427,6.368-21.5-3.195L606.09,389.43
			c-1.22-3.798-4.231-6.752-8.051-7.899l-47.596-14.299c-9.62-2.89-11.75-15.557-3.605-21.435l40.301-29.081
			c3.235-2.334,5.114-6.11,5.025-10.098l-1.109-49.685C590.83,246.89,602.219,240.95,610.326,246.881z"/>
		<path style="display:inline;fill:#F4B638;stroke:#FFFFFF;stroke-width:14;stroke-miterlimit:10;" d="M268.671,604.118
			l49.73,38.216c3.991,3.067,9.237,3.974,14.026,2.425l59.674-19.301c12.061-3.901,23.36,7.722,19.12,19.668l-20.978,59.105
			c-1.684,4.744-0.925,10.013,2.028,14.089l36.796,50.789c7.437,10.266-0.125,24.603-12.797,24.262l-62.695-1.687
			c-5.032-0.135-9.809,2.214-12.773,6.282l-36.933,50.69c-7.465,10.246-23.438,7.484-27.029-4.673l-17.769-60.148
			c-1.426-4.828-5.137-8.644-9.922-10.206l-59.622-19.461c-12.051-3.933-14.36-19.978-3.908-27.15l51.713-35.486
			c4.151-2.848,6.634-7.556,6.641-12.59l0.084-62.718C244.074,603.548,258.62,596.393,268.671,604.118z"/>
		<path style="display:inline;fill:#F4B638;stroke:#FFFFFF;stroke-width:14;stroke-miterlimit:10;" d="M270.164,315.962
			l56.643,34.349c4.546,2.757,10.158,3.1,15.007,0.918l60.407-27.188c12.21-5.495,25.421,5.395,22.356,18.429l-15.164,64.485
			c-1.217,5.176,0.191,10.619,3.764,14.556l44.524,49.049c8.999,9.914,2.724,25.844-10.619,26.956l-66.015,5.505
			c-5.299,0.442-10.04,3.463-12.68,8.078l-32.89,57.502c-6.648,11.622-23.737,10.577-28.918-1.769l-25.635-61.083
			c-2.058-4.903-6.396-8.479-11.601-9.563l-64.851-13.511c-13.108-2.731-17.394-19.307-7.254-28.05l50.171-43.256
			c4.027-3.472,6.088-8.703,5.51-13.988l-7.191-65.852C244.276,318.218,258.715,309.019,270.164,315.962z"/>
		<path style="display:inline;fill:#F4B638;stroke:#FFFFFF;stroke-width:14;stroke-miterlimit:10;" d="M500.307,159.208l53.4,31.102
			c4.286,2.496,9.526,2.724,14.012,0.608l55.894-26.358c11.297-5.327,23.8,4.612,21.156,16.82l-13.078,60.398
			c-1.05,4.848,0.353,9.901,3.752,13.514l42.34,45.014c8.558,9.098,2.968,24.06-9.459,25.318l-61.483,6.226
			c-4.935,0.5-9.308,3.396-11.694,7.744l-29.727,54.178c-6.008,10.95-21.965,10.258-27.002-1.172l-24.92-56.55
			c-2-4.539-6.106-7.803-10.979-8.728l-60.712-11.53c-12.271-2.33-16.543-17.72-7.229-26.043l46.081-41.176
			c3.699-3.305,5.534-8.218,4.908-13.138l-7.795-61.304C476.197,161.74,489.513,152.921,500.307,159.208z"/>
		<path style="display:inline;fill:#F7C758;stroke:#FFFFFF;stroke-width:14;stroke-miterlimit:10;" d="M395.56,454.828l41.682,41.41
			c3.345,3.324,8.112,4.788,12.747,3.917l57.742-10.86c11.671-2.195,20.793,9.945,15.436,20.544l-26.503,52.438
			c-2.127,4.209-2.047,9.195,0.214,13.333l28.172,51.56c5.694,10.422-3.033,22.849-14.769,21.029l-58.061-9.002
			c-4.66-0.722-9.377,0.894-12.615,4.324l-40.331,42.726c-8.152,8.636-22.668,4.176-24.564-7.548l-9.381-58.001
			c-0.753-4.655-3.748-8.642-8.01-10.661l-53.098-25.154c-10.732-5.084-10.976-20.268-0.412-25.694l52.264-26.845
			c4.195-2.155,7.061-6.235,7.664-10.913l7.515-58.272C372.77,451.382,387.135,446.459,395.56,454.828z"/>
		<path style="display:inline;fill:#F7C758;stroke:#FFFFFF;stroke-width:14;stroke-miterlimit:10;" d="M584.739,293.819
			l-3.771,34.976c-0.303,2.807,0.795,5.584,2.936,7.425l26.675,22.935c5.392,4.636,3.127,13.441-3.832,14.901l-34.43,7.222
			c-2.763,0.58-5.065,2.482-6.154,5.087l-13.57,32.456c-2.743,6.56-11.817,7.128-15.356,0.96l-17.508-30.513
			c-1.405-2.449-3.926-4.05-6.74-4.281l-35.061-2.876c-7.087-0.581-10.43-9.036-5.659-14.307l23.609-26.08
			c1.895-2.093,2.639-4.985,1.988-7.733l-8.099-34.234c-1.637-6.919,5.371-12.712,11.859-9.803l32.099,14.395
			c2.576,1.155,5.556,0.969,7.969-0.498l30.055-18.282C577.826,281.875,585.501,286.749,584.739,293.819z"/>
		<path style="display:inline;fill:#F4B638;stroke:#FFFFFF;stroke-width:14;stroke-miterlimit:10;" d="M549.68,629.977
			l40.111,29.342c3.219,2.355,7.392,2.975,11.157,1.658l46.911-16.408c9.482-3.316,18.65,5.679,15.515,15.222l-15.511,47.215
			c-1.245,3.79-0.545,7.949,1.871,11.123l30.101,39.545c6.084,7.993,0.362,19.493-9.683,19.46l-49.698-0.161
			c-3.989-0.013-7.729,1.938-10.001,5.216l-28.307,40.848c-5.721,8.256-18.427,6.368-21.5-3.195l-15.204-47.315
			c-1.22-3.798-4.231-6.752-8.051-7.899l-47.596-14.299c-9.62-2.89-11.75-15.557-3.605-21.435l40.301-29.081
			c3.235-2.334,5.114-6.11,5.025-10.098l-1.109-49.685C530.184,629.987,541.573,624.047,549.68,629.977z"/>
		<path style="display:inline;fill:#F7C758;" d="M552.436,419.335l-75.564,91.698l-40.498-48.525
			c-15.255-18.278-14.898-44.951,0.839-62.815l0,0c14.865-16.874,39.415-21.242,59.189-10.532L552.436,419.335z"/>
		<path style="display:inline;fill:#F5A723;" d="M526.836,431.722l-41.956,50.914l-22.486-26.943
			c-8.47-10.149-8.272-24.958,0.466-34.877l0,0c8.254-9.369,21.885-11.795,32.864-5.848L526.836,431.722z"/>
	</g>
	<g>
		<g>
			<g>
				<path style="fill:#F7E539;" d="M571.578,923.949l-18.992-59.103c-0.7-2.181-2.427-3.874-4.618-4.532l-64.646-19.42
					c-9.536-2.865-16.485-10.745-18.137-20.565c-1.651-9.818,2.339-19.537,10.413-25.364l54.737-39.496
					c1.854-1.338,2.933-3.506,2.882-5.794l-0.924-41.415c-3.62-1.402-6.944-3.427-9.829-5.972
					c-3.245,0.631-6.633,0.711-10.041,0.184l-78.858-12.225c-3.24-0.496-6.514,0.621-8.763,3.004l-54.777,58.029
					c-1.23,1.303-2.57,2.449-3.974,3.483l-6.246,17.597c-1.241,3.495-0.682,7.373,1.493,10.376l49.976,68.982
					c6.812,9.401,7.679,21.622,2.262,31.891c-5.416,10.27-16.013,16.471-27.597,16.143l-44.507-1.198l-6.438,32.818
					c-1.026,5.23,0.891,10.283,5.126,13.518c4.236,3.235,9.615,3.754,14.39,1.386l85.236-42.248
					c4.583-2.272,9.558-3.403,14.525-3.403c5.488,0,10.968,1.379,15.906,4.129l83.125,46.265c4.658,2.59,10.056,2.33,14.44-0.699
					c4.385-3.028,6.539-7.985,5.763-13.257L571.578,923.949z"/>
				<path style="fill:#F7E539;" d="M302.585,650.129c-0.176-0.097-0.345-0.204-0.528-0.291l-72.116-34.163
					c-10.039-4.756-16.385-14.61-16.563-25.715c-0.125-7.812,2.83-15.094,8.027-20.497l-27.775-66.182
					c-1.584-3.773-4.922-6.526-8.929-7.36l-18.506-3.855l-12.606,25.65c-4.581,9.322-13.451,15.789-23.728,17.301l-89.443,13.149
					c-4.829,0.71-8.607,3.906-10.107,8.551c-1.5,4.645-0.306,9.448,3.194,12.848l64.844,62.994
					c7.45,7.238,10.86,17.672,9.122,27.913l-15.133,89.13c-0.817,4.812,1.055,9.393,5.009,12.255
					c3.942,2.853,8.858,3.203,13.164,0.95l27.274-18.716c3.057-2.098,4.886-5.565,4.891-9.274l0.115-85.182
					c0.015-11.61,6.496-22.006,16.915-27.131c10.418-5.121,22.61-3.911,31.816,3.163l67.541,51.903
					c2.942,2.26,6.807,2.93,10.33,1.787l34.687-11.219l-1.385-7.992C302.115,656.79,302.098,653.412,302.585,650.129z"/>
				<path style="fill:#F7E539;" d="M281.167,281.065l82.045-36.926c10.996-4.949,23.606-3.259,32.91,4.411
					c9.304,7.67,13.37,19.727,10.61,31.465l-19.129,81.346l11.753,25.72c2.077-11.378,7.172-22.311,15.285-31.52l0,0
					c9.025-10.244,20.68-17.083,33.207-20.228l3.643-6.858c-0.09-0.209-0.189-0.413-0.273-0.625
					c-2.983-7.544-1.454-15.967,3.99-21.982l32.066-35.421c0.474-0.523,0.659-1.245,0.497-1.932l-1.122-4.742l-67.543-12.827
					c-11.291-2.145-20.216-10.356-23.29-21.431c-3.074-11.075,0.34-22.712,8.91-30.37l62.587-55.924
					c2.691-2.404,4.025-5.977,3.57-9.556l-1.357-10.674l-39.04,19.06c-8.56,4.177-18.624,3.877-26.918-0.803l-69.381-39.161
					c-1.555-0.878-3.229-1.315-4.894-1.315c-1.935,0-3.857,0.589-5.571,1.758c-3.191,2.176-4.774,5.757-4.234,9.581l11.12,78.89
					c1.33,9.432-2.066,18.909-9.082,25.352l-58.685,53.884c-1.338,1.228-2.263,2.719-2.772,4.333l9.549,5.79
					C273.117,282.481,277.436,282.744,281.167,281.065z"/>
				<path style="fill:#F7E539;" d="M818.971,327.207l-40.885-53.71c-5.177-6.802-6.676-15.711-4.007-23.833l21.067-64.127
					c1.218-3.707-0.808-6.223-1.735-7.133c-0.93-0.91-3.482-2.891-7.168-1.6l-54.913,19.208l16.974,18.046
					c7.875,8.372,10.267,20.261,6.246,31.027c-4.023,10.767-13.624,18.174-25.06,19.333l-83.505,8.456
					c-3.23,0.327-6.12,2.074-7.933,4.726l18.249,15.691c6.152,5.289,8.718,13.456,6.698,21.313
					c-1.919,7.462-7.599,13.165-14.966,15.147c2.222,2.589,3.951,5.619,5.025,8.961l20.649,64.262
					c1.194,3.714,4.313,4.559,5.599,4.75c1.285,0.188,4.515,0.289,6.737-2.917l38.446-55.479
					c4.854-7.003,12.829-11.177,21.344-11.177c0.029,0,0.057,0,0.086,0l67.497,0.22c0.009,0,0.019,0,0.028,0
					c3.882,0,5.644-2.695,6.221-3.856C820.241,333.351,821.333,330.31,818.971,327.207z"/>
			</g>
			<g>
				<path style="fill:#F4B638;" d="M345.901,793.891c-5.849-8.071-7.35-18.499-4.015-27.893l2.154-6.068
					c-1.2-0.21-2.399-0.479-3.588-0.845c-1.294-0.398-2.543-0.881-3.745-1.438c-3.394-1.573-6.388-3.765-8.881-6.419
					c-3.867-4.117-6.515-9.353-7.463-15.207l-3.565-22.043l-1.519-9.393l-1.519-9.393l-1.568-9.693l-4.834,1.563l-32.113,10.387
					c-9.484,3.069-19.864,1.272-27.769-4.8l-67.543-51.906c-2.043-1.569-4.412-2.369-6.817-2.369c-1.689,0-3.395,0.395-5.019,1.192
					c-3.935,1.936-6.287,5.709-6.293,10.094l-0.115,85.184c0,0.324-0.02,0.645-0.031,0.967c-0.145,4.362-1.226,8.576-3.11,12.392
					c-2.262,4.582-5.668,8.59-10.007,11.567l-28.206,19.355l-42.03,28.841c-3.616,2.482-5.401,6.554-4.776,10.895
					c0.625,4.34,3.486,7.743,7.655,9.104l80.977,26.432c9.476,3.093,16.82,10.647,19.643,20.206l24.135,81.693
					c1.242,4.206,4.563,7.162,8.884,7.909c4.323,0.749,8.442-0.923,11.024-4.467l50.161-68.847
					c5.87-8.055,15.32-12.733,25.287-12.437l24.571,0.661l9.638,0.259l9.638,0.259l41.307,1.112
					c4.359,0.086,8.221-2.129,10.267-6.007c2.045-3.878,1.731-8.314-0.842-11.866L345.901,793.891z"/>
				<path style="fill:#F4B638;" d="M438.05,470.294c-0.081,0.272-0.149,0.543-0.258,0.815c-1.779,4.509-5.718,7.429-10.54,7.837
					l-6.343,0.53l-56.148-55.781c-6.859-6.805-16.393-9.67-25.67-7.932c-1.385,0.258-2.771,0.611-4.129,1.087
					c-10.512,3.599-17.928,12.672-19.341,23.7l-1.1,8.502l-8.366,64.908l-2.839,4.957l-5.08,8.883l-0.34,0.598l-13.623,6.995
					l-46.518,23.891l-26.593-63.36c-4.007-9.548-12.455-16.502-22.587-18.621l-13.718-2.852l-9.616-2.01l-9.616-1.997l-55.129-11.49
					c-4.74-0.978-8.285-4.373-9.507-9.059c-1.209-4.686,0.258-9.371,3.925-12.522l68.14-58.755
					c7.837-6.764,11.857-16.937,10.73-27.232l-9.765-89.437c-0.53-4.808,1.589-9.236,5.677-11.843
					c2.078-1.317,4.373-1.983,6.669-1.983c2.214,0,4.428,0.611,6.451,1.847l58.973,35.761l17.969,10.893
					c7.552,4.577,16.611,5.718,24.977,3.314c1.44-0.407,2.852-0.91,4.238-1.535l11.775-5.297l70.259-31.632
					c4.414-1.983,9.29-1.331,13.011,1.752c3.735,3.07,5.311,7.728,4.197,12.441l-13.514,57.479l-3.545,15.103l-3.531,14.994
					c-0.014,0.041-0.014,0.068-0.027,0.109c-2.323,10.051,0.421,20.59,7.348,28.237l27.503,30.288
					c2.526,6.75,6.207,13.188,11.042,19.001L438.05,470.294z"/>
				<path style="fill:#F4B638;" d="M736.743,238.424c-1.494,4.007-4.93,6.641-9.168,7.076l-83.501,8.462
					c-8.136,0.815-15.483,4.917-20.468,11.205l-3.531-3.029c-0.543-0.462-0.815-1.154-0.733-1.847l0.761-7.022l1.467-13.609
					l1.698-15.782l1.195-11.096c0.081-0.774,0.122-1.548,0.122-2.309c0-7.212-3.626-13.894-9.82-17.819
					c-6.845-4.346-15.402-4.428-22.342-0.217l-40.814,24.828c-0.611,0.367-1.358,0.407-1.997,0.122l-30.641-13.731l-9.507-4.265
					l-3.45-1.548c-1.847-0.829-3.749-1.385-5.677-1.657c-3.572-0.516-7.185-0.109-10.54,1.195c-2.105,0.801-4.115,1.956-5.922,3.463
					c-6.248,5.161-8.978,13.283-7.103,21.174l5.08,21.487l-59.203-11.246c-4.183-0.788-7.375-3.721-8.516-7.837
					c-1.141-4.102,0.081-8.258,3.26-11.096l62.585-55.93c7.361-6.574,11.015-16.339,9.765-26.132l-2.173-17.086l-1.263-9.955
					l-1.263-9.969l-5.881-46.246c-0.543-4.238,1.263-8.163,4.822-10.526c1.861-1.236,3.939-1.861,6.03-1.861
					c1.888,0,3.789,0.516,5.528,1.535l72.527,42.24c8.529,4.957,18.947,5.419,27.87,1.209l75.923-35.802
					c3.857-1.82,8.149-1.317,11.49,1.331c3.341,2.662,4.794,6.737,3.898,10.906l-17.765,82.035
					c-0.828,3.803-0.883,7.674-0.231,11.422c0.978,5.704,3.599,11.11,7.687,15.456l5.894,6.248l26.199,27.87l25.412,27.014
					C737.381,230.193,738.223,234.431,736.743,238.424z"/>
				<path style="fill:#F4B638;" d="M736.601,847.524l-40.884-53.711c-5.178-6.802-6.676-15.711-4.008-23.832l21.067-64.127
					c1.218-3.707-0.808-6.223-1.736-7.134c-0.927-0.91-3.49-2.89-7.164-1.6l-51.735,18.095l-10.915,3.818l-1.064,0.372
					c-8.072,2.823-17.008,1.495-23.906-3.553l-4.099-2.998l-17.166-12.557l-33.214-24.296c-1.423-1.04-2.82-1.377-4.029-1.377
					c-1.467,0-2.659,0.495-3.292,0.824c-1.151,0.602-3.823,2.421-3.735,6.32l0.247,11.056l0.216,9.68l0.216,9.681l0.827,37.066
					c0.191,8.544-3.833,16.634-10.763,21.637l-54.739,39.498c-3.163,2.283-3.004,5.51-2.788,6.791
					c0.216,1.283,1.12,4.385,4.856,5.507l64.645,19.42c2.345,0.704,4.54,1.735,6.55,3.026c5.011,3.216,8.836,8.093,10.702,13.901
					l1.756,5.465l17.719,55.142l1.174,3.654c1.194,3.715,4.313,4.56,5.599,4.751c1.285,0.19,4.515,0.288,6.738-2.917l38.444-55.48
					c4.854-7.003,12.827-11.176,21.341-11.176c0.031,0,0.06,0,0.09,0l67.496,0.219c0.009,0,0.019,0,0.028,0
					c3.882,0,5.644-2.695,6.221-3.856C737.872,853.669,738.964,850.627,736.601,847.524z"/>
			</g>
			<path style="fill:#F7E539;" d="M339.093,415.763c-1.385,0.258-2.771,0.611-4.129,1.087c-10.512,3.599-17.928,12.672-19.341,23.7
				l-1.1,8.502l-12.686,0.693c-4.047,0.217-7.728,2.418-9.833,5.881l-20.088,32.922c-5.311,8.706-18.308,7.538-21.989-1.969
				l-13.921-35.965c-1.453-3.789-4.686-6.601-8.624-7.538l-37.513-8.937c-9.928-2.363-12.835-15.076-4.93-21.527l29.907-24.339
				c3.151-2.553,4.822-6.506,4.496-10.54l-3.097-38.437c-0.815-10.173,10.377-16.869,18.96-11.327l32.393,20.916
				c3.395,2.2,7.674,2.581,11.409,1.019l35.598-14.831c9.426-3.925,19.245,4.659,16.638,14.533l-9.888,37.269
				c-1.032,3.912-0.082,8.095,2.553,11.164L339.093,415.763z"/>
			<path style="fill:#F7E539;" d="M649.737,222.425l-26.471,1.453l1.195-11.096c0.081-0.774,0.122-1.548,0.122-2.309
				c0-7.212-3.626-13.894-9.82-17.819c-6.845-4.346-15.402-4.428-22.342-0.217l-40.814,24.828c-0.611,0.367-1.358,0.407-1.997,0.122
				l-30.641-13.731l-9.507-4.265l-3.45-1.548c-1.847-0.829-3.749-1.385-5.677-1.657c-3.572-0.516-7.185-0.109-10.54,1.195
				c-0.136-3.613,1.29-7.307,4.536-9.956l29.907-24.352c3.137-2.553,4.822-6.492,4.496-10.54l-3.097-38.437
				c-0.815-10.173,10.377-16.869,18.947-11.327l32.393,20.916c3.409,2.2,7.674,2.581,11.422,1.019L624,109.885
				c9.412-3.925,19.246,4.659,16.638,14.519l-9.888,37.269c-1.046,3.925-0.082,8.095,2.553,11.178l25.099,29.269
				C665.044,209.875,659.924,221.868,649.737,222.425z"/>
			<g>
				<path style="fill:#F7C758;" d="M521.429,661.449l-34.097-62.403c-2.111-3.864-3.27-8.093-3.495-12.362
					c-0.263-4.978,0.747-10.013,3.063-14.595l35.997-71.22c1.747-3.458,1.401-7.371-0.927-10.468
					c-2.328-3.098-5.995-4.516-9.796-3.803l-31.997,6.018l-11.672,14.164l-8.634-10.345l-26.122,4.913
					c-6.15,1.158-12.408,0.268-17.899-2.371c-2.877-1.383-5.546-3.237-7.872-5.547l-3.098-3.078l-8.859-8.801l-44.654-44.363
					c-1.924-1.911-4.377-2.916-6.933-2.916c-1.096,0-2.209,0.184-3.309,0.561c-3.665,1.256-6.148,4.3-6.644,8.143l-5.876,45.564
					l-1.5,11.632l-2.573,19.956l-0.233,1.806l-0.024,0.186c-0.41,3.18-1.348,6.218-2.721,9.023c-1.6,3.269-3.804,6.212-6.501,8.672
					c-1.02,0.93-2.102,1.797-3.257,2.58c-0.962,0.652-1.967,1.25-3.014,1.788l-12.689,6.517l-15.509,7.966l-35.446,18.206
					l-7.341,3.771c-0.39,0.2-0.755,0.427-1.108,0.667c-2.763,1.879-4.352,4.911-4.296,8.346c0.035,2.206,0.759,4.213,2.007,5.851
					c0.569,0.746,1.247,1.411,2.028,1.98c0.515,0.374,1.057,0.722,1.656,1.006l13.747,6.512l58.369,27.651
					c0.249,0.118,0.487,0.25,0.731,0.374c2.906,1.479,5.51,3.408,7.719,5.699c2.266,2.35,4.114,5.076,5.478,8.055
					c1.07,2.337,1.847,4.827,2.267,7.425l1.032,6.38l1.536,9.496l1.536,9.495l2.155,13.326l1.519,9.393l1.519,9.393l3.444,21.294
					c0.619,3.824,3.199,6.787,6.902,7.925c1.565,0.48,3.142,0.556,4.648,0.297c2.058-0.354,3.978-1.352,5.513-2.979l9.027-9.563
					l16.168-17.128l6.698-7.096l21.341-22.609l1.543-1.635c6.546-6.936,16.078-10.21,25.503-8.741l73.954,11.465l4.903,0.76
					c1.976,0.304,3.891,0.032,5.593-0.729c1.594-0.713,3-1.853,4.077-3.387c1.393-1.984,2-4.264,1.804-6.525
					c-0.117-1.351-0.52-2.695-1.215-3.967L521.429,661.449z"/>
				<path style="fill:#F7C758;" d="M643.905,307.708l-15.253-13.114l-7.368-6.335l-7.368-6.335l-6.24-5.365
					c-3.043-2.617-5.226-5.999-6.392-9.72c-0.858-2.738-1.168-5.657-0.852-8.592l0.294-2.729l1.371-12.713l3.457-32.061
					c0.095-0.879-0.236-1.566-0.983-2.041c-0.748-0.474-1.507-0.481-2.264-0.022l-40.82,24.83c-3.969,2.414-8.558,3.414-13.06,2.972
					c-2.25-0.221-4.478-0.794-6.595-1.744l-14.67-6.579l-22.316-10.007l-6.609-2.964c-0.315-0.141-0.623-0.212-0.92-0.212
					c-0.466,0-0.908,0.172-1.324,0.516c-0.682,0.563-0.924,1.285-0.72,2.146l7.039,29.754l2.419,10.226l1.541,6.516
					c0.401,1.693,0.587,3.408,0.568,5.108c-0.057,5.108-1.964,10.089-5.472,13.963l-19.373,21.4l-12.693,14.021
					c-0.019,0.021-0.027,0.043-0.045,0.064c-0.547,0.641-0.674,1.367-0.359,2.164c0.326,0.823,0.938,1.277,1.819,1.349l14.408,1.182
					l33.211,2.724c6.941,0.568,13.155,4.515,16.622,10.556l21.663,37.756l6.037,3.251l4.301-10.287l3.87-9.257l4.336-10.372
					l5.84-13.968c1.146-2.739,2.858-5.135,4.946-7.126c1.625-1.549,3.471-2.855,5.513-3.823c1.49-0.707,3.07-1.252,4.72-1.599
					l2.805-0.588l5.107-1.071l12.254-2.57l2.096-0.44l24.499-5.139c0.865-0.181,1.415-0.708,1.637-1.564
					C644.804,309.012,644.575,308.285,643.905,307.708z"/>
				<path style="fill:#F7C758;" d="M570.774,382.673l0.36-0.437l-0.11-0.059C570.943,382.344,570.862,382.512,570.774,382.673z"/>
			</g>
			<g>
				<path style="fill:#F7C758;" d="M546.731,361.308l-6.037-3.251l-15.862-8.542l-15.862-8.541l-25.439-13.699l-4.43-2.385
					c-7.864-4.26-16.286-6.75-24.769-7.585c-3.558-0.35-7.126-0.409-10.671-0.178c-1.564,0.102-3.123,0.249-4.674,0.462
					c-2.38,0.327-4.738,0.793-7.069,1.378c-12.527,3.145-24.182,9.984-33.207,20.228l0,0c-8.113,9.209-13.208,20.142-15.285,31.52
					c-0.159,0.872-0.304,1.745-0.427,2.621c-0.561,3.981-0.747,8.004-0.575,12.016c0.023,0.529,0.046,1.058,0.082,1.586
					c0.222,3.299,0.699,6.582,1.42,9.826c0.657,2.959,1.524,5.88,2.596,8.744l32.975,36.326c3.056,3.367,3.99,7.83,2.624,12.092
					l6.697,8.025l1.166,1.397l5.142,6.161l1.836,2.2l6.978,8.362l8.634,10.345l11.672-14.164l9.434-11.449l9.434-11.448
					l59.058-71.667l9.897-12.01l2.776-3.369c0.088-0.161,0.169-0.328,0.25-0.496L546.731,361.308z M463.452,451.845l-30.54-36.593
					c-11.504-13.784-11.235-33.898,0.633-47.37l0,0c11.21-12.725,29.724-16.019,44.635-7.942l42.256,22.755L463.452,451.845z"/>
				<path style="fill:#F5A723;" d="M433.545,367.882L433.545,367.882c-11.868,13.472-12.137,33.586-0.633,47.37l30.54,36.593
					l56.984-69.151L478.18,359.94C463.269,351.863,444.755,355.158,433.545,367.882z"/>
				<path style="fill:#F7C758;" d="M422.122,453.925c1.366-4.262,0.432-8.725-2.624-12.092l-32.975-36.326
					c2.53,6.757,6.201,13.193,11.049,19.001L422.122,453.925z"/>
			</g>
			<path style="fill:#F7E539;" d="M213.624,710.838l36.978,32.572c2.004,1.765,4.748,2.431,7.338,1.781l47.796-11.996
				c6.523-1.637,12.091,4.916,9.423,11.089l-19.551,45.233c-1.06,2.451-0.845,5.267,0.574,7.53l26.178,41.749
				c3.573,5.698-0.939,13.018-7.634,12.388l-49.061-4.617c-2.659-0.25-5.27,0.824-6.984,2.872l-31.617,37.798
				c-4.315,5.158-12.672,3.13-14.141-3.432l-10.77-48.086c-0.584-2.606-2.412-4.758-4.89-5.754l-45.718-18.389
				c-6.239-2.51-6.892-11.084-1.105-14.51l42.405-25.103c2.298-1.36,3.78-3.764,3.962-6.429l3.361-49.163
				C200.624,709.664,208.577,706.393,213.624,710.838z"/>
			<path style="fill:#F7E539;" d="M589.715,721.378l28.43,19.858c2.988,2.087,6.812,2.57,10.225,1.292l32.476-12.162
				c8.596-3.219,17.151,4.816,14.478,13.596l-10.101,33.175c-1.062,3.487-0.34,7.273,1.931,10.124l21.602,27.128
				c5.718,7.18,0.72,17.8-8.457,17.971l-34.672,0.645c-3.644,0.068-7.022,1.924-9.032,4.965l-19.125,28.928
				c-5.062,7.657-16.706,6.185-19.705-2.49l-11.328-32.776c-1.191-3.445-4-6.083-7.513-7.056l-33.422-9.249
				c-8.846-2.448-11.045-13.977-3.721-19.51l27.671-20.902c2.908-2.197,4.549-5.684,4.389-9.326l-1.531-34.645
				C571.905,721.776,582.19,716.122,589.715,721.378z"/>
		</g>
		<path style="fill:#F7C758;" d="M945.143,696.256l3.939,8.529l3.803,8.258c0,0-7.09,27.761-4.509,41.954
			c2.581,14.207,15.483,64.555-14.845,96.173c0,0-70.178,30.831-164.409-18.227c-94.245-49.058-225.459-69.553-225.459-69.553
			s-94.72-222.539-99.08-263.842c0,0,139.499-179.729,161.203-218.492l167.016,104.567l130.712,145.231
			c0,0,47.917,18.865,60.983,42.104c0.014,0.013,0.014,0.013,0.014,0.013l5.813,22.6l-12.916,23.877
			C957.408,619.45,980.008,665.275,945.143,696.256z"/>
		<path style="fill:#F4B638;" d="M816.374,540.057l-96.34-45.613c0,0-68.418,13.662-98.916-6.186s-30.005-82.301-30.005-82.301
			s61.149,58.096,167.169,39.215l-15.491,21.301L816.374,540.057z"/>
		<path style="fill:#F4B638;" d="M945.143,696.256l3.939,8.529l-45.567,8.584c0,0-30.79,35.72-87.141,27.979
			c-56.351-7.728-39.048-72.201-39.048-72.201c5.962,55.523,68.1,41.805,118.923,20.984c50.837-20.821,61.159-70.68,61.159-70.68
			S980.008,665.275,945.143,696.256z"/>
		<path style="fill:#F7E539;" d="M379.881,501.532l31.856,32.361c2.223,2.259,5.416,3.279,8.537,2.727l44.718-7.897
			c7.86-1.388,13.899,6.839,10.22,13.922l-20.933,40.297c-1.461,2.813-1.445,6.164,0.044,8.962l21.329,40.089
			c3.749,7.046-2.209,15.332-10.082,14.022l-44.794-7.456c-3.126-0.52-6.309,0.531-8.51,2.811l-31.536,32.673
			c-5.543,5.743-15.265,2.637-16.451-5.256l-6.751-44.905c-0.471-3.134-2.454-5.836-5.303-7.224l-40.819-19.896
			c-7.174-3.497-7.225-13.703-0.085-17.27l40.621-20.297c2.835-1.417,4.792-4.138,5.232-7.276l6.308-44.969
			C364.591,499.046,374.282,495.844,379.881,501.532z"/>
		<path style="fill:#F7E539;" d="M531.114,253.571l22.311,10.637c1.126,0.537,2.445,0.485,3.525-0.138l21.411-12.349
			c2.722-1.57,6.062,0.663,5.652,3.778l-3.222,24.506c-0.163,1.237,0.294,2.475,1.221,3.31l18.361,16.547
			c2.334,2.103,1.243,5.97-1.846,6.543l-24.303,4.509c-1.227,0.228-2.263,1.044-2.771,2.184l-10.063,22.576
			c-1.279,2.87-5.294,3.027-6.793,0.266L542.8,314.22c-0.596-1.096-1.692-1.829-2.933-1.96l-24.581-2.594
			c-3.125-0.33-4.515-4.099-2.352-6.379l17.011-17.932c0.859-0.905,1.217-2.175,0.958-3.395l-5.128-24.179
			C525.123,254.706,528.278,252.219,531.114,253.571z"/>
		<path style="fill:#34495C;" d="M945.146,696.262c0,0-35.19-1.936-69.066,25.819c-29.728,24.357-108.44,18.073-98.758-52.929
			c0,0-17.85,26.464-0.857,58.093c16.994,31.628,75.332,42.06,107.36,14.2c34.21-29.757,69.066-28.401,69.066-28.401
			L945.146,696.262z"/>
		<path style="fill:#34495C;" d="M970.324,595.573l-12.916,23.877c-50.348-9.684-54.857-46.477-40.012-54.871
			c14.655-8.271,46.314,7.973,47.102,8.38c0.014,0.013,0.014,0.013,0.014,0.013L970.324,595.573z"/>
		<path style="fill:#34495C;" d="M623.699,436.458c0,0,44.538,32.919,134.582,8.714l-15.491,21.301l73.584,73.584l-83.266-51.799
			c0,0-63.902-7.262-87.139-14.039S623.699,436.458,623.699,436.458z"/>
		<polygon style="fill:#F4B638;" points="903.515,530.855 861.004,520.696 759.248,387.078 605.787,281.057 772.803,385.624 		"/>
	</g>
	<g>
	</g>
	<g>
	</g>
	<g>
	</g>
	<g>
	</g>
	<g>
	</g>
	<g>
	</g>
	<g>
	</g>
	<g>
	</g>
	<g>
	</g>
	<g>
	</g>
	<g>
	</g>
	<g>
	</g>
	<g>
	</g>
	<g>
	</g>
	<g>
	</g>
</g>
</svg>
