<?xml version="1.0" encoding="UTF-8"?>
<svg width="30px" height="32px" viewBox="0 0 30 32" version="1.1" xmlns="http://www.w3.org/2000/svg" xmlns:xlink="http://www.w3.org/1999/xlink">
    <!-- Generator: Sketch 52.5 (67469) - http://www.bohemiancoding.com/sketch -->
    <title>Group</title>
    <desc>Created with Sketch.</desc>
    <g id="Page-1" stroke="none" stroke-width="1" fill="none" fill-rule="evenodd">
        <g id="Newspaper" transform="translate(-9.000000, -8.000000)">
            <g id="Group" transform="translate(9.000000, 8.000000)">
                <path d="M28.1688,31.004 L26.8558,31.004 C25.2898,31.004 24.0208,29.735 24.0208,28.169 L24.0208,16 L29.7278,16 L29.7278,29.445 C29.7278,30.306 29.0298,31.004 28.1688,31.004" id="Fill-1" fill="#CFCFCF"></path>
                <path d="M27.7028,31.004 L2.2968,31.004 C1.1788,31.004 0.2718,30.097 0.2718,28.979 L0.2718,3.021 C0.2718,1.903 1.1788,0.996 2.2968,0.996 L21.9958,0.996 C23.1138,0.996 24.0208,1.903 24.0208,3.021 L24.0208,27.322 C24.0208,29.922 25.4018,31.004 27.7028,31.004" id="Fill-3" fill="#EAEAEA"></path>
                <polygon id="Fill-5" fill="#FCFCFC" points="2.666 10.477 21.904 10.477 21.904 3.942 2.666 3.942"></polygon>
                <polygon id="Fill-7" fill="#FCFCFC" points="2.666 20.326 9.201 20.326 9.201 12.042 2.666 12.042"></polygon>
                <polygon id="Fill-8" fill="#CFCFCF" points="10.674 13.146 21.904 13.146 21.904 12.041 10.674 12.041"></polygon>
                <polygon id="Fill-9" fill="#CFCFCF" points="10.674 16.736 21.904 16.736 21.904 15.631 10.674 15.631"></polygon>
                <polygon id="Fill-10" fill="#CFCFCF" points="10.674 20.326 21.904 20.326 21.904 19.221 10.674 19.221"></polygon>
                <polygon id="Fill-11" fill="#CFCFCF" points="2.666 23.847 21.904 23.847 21.904 22.742 2.666 22.742"></polygon>
                <polygon id="Fill-12" fill="#CFCFCF" points="2.666 27.713 21.904 27.713 21.904 26.608 2.666 26.608"></polygon>
                <polygon id="Fill-13" fill="#000000" points="8.5343 5.7226 8.5343 8.7436 7.9293 8.7436 6.5593 6.6736 6.5593 8.7436 5.9543 8.7436 5.9543 5.7226 6.5593 5.7226 7.9293 7.7966 7.9293 5.7226"></polygon>
                <polygon id="Fill-14" fill="#000000" points="11.0977 6.2154 9.9527 6.2154 9.9527 6.9724 10.9687 6.9724 10.9687 7.4514 9.9527 7.4514 9.9527 8.2504 11.0977 8.2504 11.0977 8.7434 9.3477 8.7434 9.3477 5.7224 11.0977 5.7224"></polygon>
                <polygon id="Fill-15" fill="#000000" points="11.6603 5.7273 12.3083 5.7273 12.8403 8.0693 13.4543 5.7273 14.1283 5.7273 14.7073 8.0563 15.2433 5.7273 15.8953 5.7273 15.0533 8.7433 14.3393 8.7433 13.7733 6.5953 13.1813 8.7433 12.4733 8.7483"></polygon>
                <path d="M17.5475,8.7741 C16.9205,8.7741 16.4365,8.4461 16.4285,7.8751 L17.0765,7.8751 C17.0935,8.1171 17.2535,8.2771 17.5345,8.2771 C17.8195,8.2771 17.9885,8.1261 17.9885,7.9101 C17.9885,7.2571 16.4325,7.6501 16.4365,6.5571 C16.4365,6.0121 16.8775,5.6841 17.4995,5.6841 C18.1175,5.6841 18.5415,5.9991 18.5805,6.5441 L17.9145,6.5441 C17.9025,6.3451 17.7415,6.1901 17.4825,6.1851 C17.2445,6.1761 17.0675,6.2931 17.0675,6.5391 C17.0675,7.1441 18.6145,6.8071 18.6145,7.8711 C18.6145,8.3461 18.2345,8.7741 17.5475,8.7741" id="Fill-16" fill="#000000"></path>
            </g>
        </g>
    </g>
</svg>