<?xml version="1.0" encoding="UTF-8"?>
<svg width="30px" height="30px" viewBox="0 0 30 30" version="1.1" xmlns="http://www.w3.org/2000/svg" xmlns:xlink="http://www.w3.org/1999/xlink">
    <!-- Generator: Sketch 52.5 (67469) - http://www.bohemiancoding.com/sketch -->
    <title>Group</title>
    <desc>Created with Sketch.</desc>
    <g id="Page-1" stroke="none" stroke-width="1" fill="none" fill-rule="evenodd">
        <g id="Shop" transform="translate(-9.000000, -9.000000)">
            <g id="Group" transform="translate(9.000000, 9.000000)">
                <path d="M26.9969,29.9574 L3.0449,29.9574 C2.0569,29.9574 1.2559,29.1564 1.2559,28.1684 L1.2559,19.0004 L28.7859,19.0004 L28.7859,28.1684 C28.7859,29.1564 27.9849,29.9574 26.9969,29.9574" id="Fill-1" fill="#DBB280"></path>
                <path d="M2.3098,22.9848 C1.4328,22.9848 0.7218,22.2738 0.7218,21.3968 L0.7218,19.6118 L3.8978,19.6118 L3.8978,21.3968 C3.8978,22.2738 3.1868,22.9848 2.3098,22.9848" id="Fill-3" fill="#CF3032"></path>
                <path d="M5.485,22.9848 C4.608,22.9848 3.897,22.2738 3.897,21.3968 L3.897,19.6118 L7.073,19.6118 L7.073,21.3968 C7.073,22.2738 6.362,22.9848 5.485,22.9848" id="Fill-5" fill="#FFFFFF"></path>
                <path d="M8.6603,22.9848 C7.7833,22.9848 7.0723,22.2738 7.0723,21.3968 L7.0723,19.6118 L10.2483,19.6118 L10.2483,21.3968 C10.2483,22.2738 9.5373,22.9848 8.6603,22.9848" id="Fill-7" fill="#CF3032"></path>
                <path d="M11.8355,22.9848 C10.9585,22.9848 10.2475,22.2738 10.2475,21.3968 L10.2475,19.6118 L13.4235,19.6118 L13.4235,21.3968 C13.4235,22.2738 12.7125,22.9848 11.8355,22.9848" id="Fill-9" fill="#FFFFFF"></path>
                <path d="M15.0108,22.9848 C14.1338,22.9848 13.4228,22.2738 13.4228,21.3968 L13.4228,19.6118 L16.5988,19.6118 L16.5988,21.3968 C16.5988,22.2738 15.8878,22.9848 15.0108,22.9848" id="Fill-11" fill="#CF3032"></path>
                <path d="M18.1861,22.9848 C17.3091,22.9848 16.5981,22.2738 16.5981,21.3968 L16.5981,19.6118 L19.7741,19.6118 L19.7741,21.3968 C19.7741,22.2738 19.0631,22.9848 18.1861,22.9848" id="Fill-13" fill="#FFFFFF"></path>
                <path d="M21.3613,22.9848 C20.4843,22.9848 19.7733,22.2738 19.7733,21.3968 L19.7733,19.6118 L22.9493,19.6118 L22.9493,21.3968 C22.9493,22.2738 22.2383,22.9848 21.3613,22.9848" id="Fill-15" fill="#CF3032"></path>
                <path d="M27.7118,22.9848 C26.8348,22.9848 26.1238,22.2738 26.1238,21.3968 L26.1238,19.6118 L29.2998,19.6118 L29.2998,21.3968 C29.2998,22.2738 28.5888,22.9848 27.7118,22.9848" id="Fill-17" fill="#CF3032"></path>
                <path d="M24.5365,22.9848 C23.6595,22.9848 22.9485,22.2738 22.9485,21.3968 L22.9485,19.6118 L26.1245,19.6118 L26.1245,21.3968 C26.1245,22.2738 25.4135,22.9848 24.5365,22.9848" id="Fill-19" fill="#FFFFFF"></path>
                <path d="M22.7894,27.644 L7.3354,27.644 C6.9634,27.644 6.6614,27.342 6.6614,26.969 L6.6614,25.089 L23.4644,25.089 L23.4644,26.969 C23.4644,27.342 23.1624,27.644 22.7894,27.644" id="Fill-21" fill="#FFFFFF"></path>
                <polygon id="Fill-23" fill="#DBB280" points="3.116 17.896 5.234 17.896 5.234 8.136 3.116 8.136"></polygon>
                <polygon id="Fill-25" fill="#DBB280" points="24.799 17.896 26.917 17.896 26.917 8.136 24.799 8.136"></polygon>
                <path d="M27.9615,20.7961 L1.9965,20.7961 C1.0055,20.7961 0.2015,19.9921 0.2015,19.0011 C0.2015,18.0091 1.0055,17.2051 1.9965,17.2051 L27.9615,17.2051 C28.9535,17.2051 29.7565,18.0091 29.7565,19.0011 C29.7565,19.9921 28.9535,20.7961 27.9615,20.7961" id="Fill-26" fill="#AC7B47"></path>
                <path d="M28.0591,9.6922 L1.9821,9.6922 C1.0221,9.6922 0.2431,8.9132 0.2431,7.9532 L0.2431,1.7822 C0.2431,0.8212 1.0221,0.0422 1.9821,0.0422 L28.0591,0.0422 C29.0201,0.0422 29.7981,0.8212 29.7981,1.7822 L29.7981,7.9532 C29.7981,8.9132 29.0201,9.6922 28.0591,9.6922" id="Fill-27" fill="#CF3032"></path>
                <path d="M8.0064,7.0782 C7.1094,7.0782 6.4164,6.6082 6.4044,5.7922 L7.3324,5.7922 C7.3564,6.1382 7.5854,6.3672 7.9874,6.3672 C8.3954,6.3672 8.6374,6.1512 8.6374,5.8412 C8.6374,4.9082 6.4104,5.4702 6.4164,3.9062 C6.4164,3.1262 7.0474,2.6562 7.9384,2.6562 C8.8224,2.6562 9.4284,3.1082 9.4844,3.8872 L8.5324,3.8872 C8.5134,3.6022 8.2844,3.3802 7.9134,3.3742 C7.5734,3.3612 7.3194,3.5282 7.3194,3.8812 C7.3194,4.7472 9.5334,4.2642 9.5334,5.7862 C9.5334,6.4662 8.9894,7.0782 8.0064,7.0782" id="Fill-28" fill="#FFFFFF"></path>
                <polygon id="Fill-29" fill="#FFFFFF" points="13.3035 5.1983 11.4545 5.1983 11.4545 7.0353 10.5885 7.0353 10.5885 2.7183 11.4545 2.7183 11.4545 4.4933 13.3035 4.4933 13.3035 2.7183 14.1695 2.7183 14.1695 7.0353 13.3035 7.0353"></polygon>
                <path d="M17.3323,6.3051 C18.1113,6.3051 18.6493,5.7421 18.6493,4.8641 C18.6493,3.9861 18.1113,3.4361 17.3323,3.4361 C16.5463,3.4361 16.0093,3.9861 16.0093,4.8641 C16.0093,5.7421 16.5463,6.3051 17.3323,6.3051 M17.3323,7.0781 C16.1143,7.0781 15.1183,6.1631 15.1183,4.8641 C15.1183,3.5711 16.1143,2.6571 17.3323,2.6571 C18.5633,2.6571 19.5403,3.5711 19.5403,4.8641 C19.5403,6.1631 18.5563,7.0781 17.3323,7.0781" id="Fill-30" fill="#FFFFFF"></path>
                <path d="M22.0414,4.6788 C22.5294,4.6788 22.7464,4.4378 22.7464,4.0538 C22.7464,3.6578 22.5294,3.4228 22.0414,3.4228 L21.3554,3.4228 L21.3554,4.6788 L22.0414,4.6788 Z M22.0784,5.3778 L21.3554,5.3778 L21.3554,7.0348 L20.4894,7.0348 L20.4894,2.7188 L22.0784,2.7188 C23.1174,2.7188 23.6374,3.3058 23.6374,4.0538 C23.6374,4.7098 23.1914,5.3778 22.0784,5.3778 Z" id="Fill-31" fill="#FFFFFF"></path>
            </g>
        </g>
    </g>
</svg>